<mxfile host="Electron" modified="2024-02-11T19:07:06.254Z" agent="Mozilla/5.0 (Windows NT 10.0; Win64; x64) AppleWebKit/537.36 (KHTML, like Gecko) draw.io/23.0.2 Chrome/120.0.6099.109 Electron/28.1.0 Safari/537.36" etag="uwhbeVxsVeUNDaGxjU5Z" version="23.0.2" type="device">
  <diagram name="Page-1" id="xfam4sXokeeh6ayahsjx">
    <mxGraphModel dx="866" dy="558" grid="1" gridSize="10" guides="1" tooltips="1" connect="1" arrows="1" fold="1" page="1" pageScale="1" pageWidth="850" pageHeight="1100" background="none" math="0" shadow="0">
      <root>
        <mxCell id="0" />
        <mxCell id="1" parent="0" />
        <mxCell id="U7nlf6tqnG1k-A7loD41-1" value="1- Build the Static version of the game" style="rounded=0;whiteSpace=wrap;html=1;fontStyle=1;fontSize=16;fillColor=#fff2cc;strokeColor=#d6b656;" parent="1" vertex="1">
          <mxGeometry x="80" y="50" width="720" height="60" as="geometry" />
        </mxCell>
        <mxCell id="OPXwDxHvdaO52AK6WmsE-5" style="edgeStyle=orthogonalEdgeStyle;rounded=0;orthogonalLoop=1;jettySize=auto;html=1;entryX=0.5;entryY=0;entryDx=0;entryDy=0;" edge="1" parent="1" source="OPXwDxHvdaO52AK6WmsE-2" target="OPXwDxHvdaO52AK6WmsE-4">
          <mxGeometry relative="1" as="geometry" />
        </mxCell>
        <mxCell id="OPXwDxHvdaO52AK6WmsE-2" value="&lt;font size=&quot;1&quot; style=&quot;&quot;&gt;&lt;b style=&quot;font-size: 16px;&quot;&gt;2- add logic game&lt;/b&gt;&lt;/font&gt;" style="rounded=0;whiteSpace=wrap;html=1;fillColor=#fff2cc;strokeColor=#d6b656;" vertex="1" parent="1">
          <mxGeometry x="80" y="200" width="720" height="60" as="geometry" />
        </mxCell>
        <mxCell id="OPXwDxHvdaO52AK6WmsE-4" value="&lt;h1&gt;&lt;b&gt;&lt;font style=&quot;font-size: 16px;&quot;&gt;initial state&lt;/font&gt;&lt;/b&gt;&lt;/h1&gt;" style="whiteSpace=wrap;html=1;aspect=fixed;fillColor=#dae8fc;strokeColor=#6c8ebf;" vertex="1" parent="1">
          <mxGeometry x="80" y="310" width="110" height="110" as="geometry" />
        </mxCell>
        <mxCell id="OPXwDxHvdaO52AK6WmsE-9" style="edgeStyle=orthogonalEdgeStyle;rounded=0;orthogonalLoop=1;jettySize=auto;html=1;exitX=0.5;exitY=1;exitDx=0;exitDy=0;entryX=0.5;entryY=0;entryDx=0;entryDy=0;" edge="1" parent="1" source="OPXwDxHvdaO52AK6WmsE-7" target="OPXwDxHvdaO52AK6WmsE-8">
          <mxGeometry relative="1" as="geometry" />
        </mxCell>
        <mxCell id="OPXwDxHvdaO52AK6WmsE-7" value="&lt;h3&gt;&lt;span style=&quot;font-size: 16px;&quot;&gt;user rolls&lt;br&gt;&lt;/span&gt;&lt;span style=&quot;font-size: 16px;&quot;&gt;dice&lt;/span&gt;&lt;/h3&gt;" style="ellipse;whiteSpace=wrap;html=1;" vertex="1" parent="1">
          <mxGeometry x="340" y="325" width="120" height="80" as="geometry" />
        </mxCell>
        <mxCell id="OPXwDxHvdaO52AK6WmsE-11" value="" style="edgeStyle=orthogonalEdgeStyle;rounded=0;orthogonalLoop=1;jettySize=auto;html=1;" edge="1" parent="1" source="OPXwDxHvdaO52AK6WmsE-8" target="OPXwDxHvdaO52AK6WmsE-10">
          <mxGeometry relative="1" as="geometry" />
        </mxCell>
        <mxCell id="OPXwDxHvdaO52AK6WmsE-8" value="&lt;font style=&quot;font-size: 16px;&quot;&gt;generate random dice&lt;br&gt;&amp;nbsp;roll&lt;/font&gt;" style="whiteSpace=wrap;html=1;aspect=fixed;" vertex="1" parent="1">
          <mxGeometry x="340" y="480" width="120" height="120" as="geometry" />
        </mxCell>
        <mxCell id="OPXwDxHvdaO52AK6WmsE-13" value="" style="edgeStyle=orthogonalEdgeStyle;rounded=0;orthogonalLoop=1;jettySize=auto;html=1;" edge="1" parent="1" source="OPXwDxHvdaO52AK6WmsE-10" target="OPXwDxHvdaO52AK6WmsE-12">
          <mxGeometry relative="1" as="geometry" />
        </mxCell>
        <mxCell id="OPXwDxHvdaO52AK6WmsE-20" value="" style="edgeStyle=orthogonalEdgeStyle;rounded=0;orthogonalLoop=1;jettySize=auto;html=1;" edge="1" parent="1" source="OPXwDxHvdaO52AK6WmsE-10" target="OPXwDxHvdaO52AK6WmsE-19">
          <mxGeometry relative="1" as="geometry" />
        </mxCell>
        <mxCell id="OPXwDxHvdaO52AK6WmsE-10" value="&lt;font style=&quot;font-size: 16px;&quot;&gt;is it a 1&lt;/font&gt;" style="rhombus;whiteSpace=wrap;html=1;" vertex="1" parent="1">
          <mxGeometry x="360" y="700" width="80" height="80" as="geometry" />
        </mxCell>
        <mxCell id="OPXwDxHvdaO52AK6WmsE-18" value="" style="edgeStyle=orthogonalEdgeStyle;rounded=0;orthogonalLoop=1;jettySize=auto;html=1;" edge="1" parent="1" source="OPXwDxHvdaO52AK6WmsE-12" target="OPXwDxHvdaO52AK6WmsE-17">
          <mxGeometry relative="1" as="geometry" />
        </mxCell>
        <mxCell id="OPXwDxHvdaO52AK6WmsE-12" value="&lt;font style=&quot;font-size: 16px;&quot;&gt;Add to the current&lt;br&gt;sore&lt;/font&gt;" style="whiteSpace=wrap;html=1;" vertex="1" parent="1">
          <mxGeometry x="340" y="870" width="120" height="80" as="geometry" />
        </mxCell>
        <mxCell id="OPXwDxHvdaO52AK6WmsE-16" value="&lt;font style=&quot;font-size: 16px;&quot;&gt;No&lt;/font&gt;" style="text;html=1;align=center;verticalAlign=middle;resizable=0;points=[];autosize=1;strokeColor=none;fillColor=none;" vertex="1" parent="1">
          <mxGeometry x="420" y="798" width="40" height="30" as="geometry" />
        </mxCell>
        <mxCell id="OPXwDxHvdaO52AK6WmsE-17" value="&lt;font style=&quot;font-size: 16px;&quot;&gt;Display&lt;/font&gt;" style="whiteSpace=wrap;html=1;" vertex="1" parent="1">
          <mxGeometry x="340" y="1040" width="120" height="60" as="geometry" />
        </mxCell>
        <mxCell id="OPXwDxHvdaO52AK6WmsE-19" value="Switch the Player" style="whiteSpace=wrap;html=1;fontSize=16;" vertex="1" parent="1">
          <mxGeometry x="590" y="710" width="120" height="60" as="geometry" />
        </mxCell>
        <mxCell id="OPXwDxHvdaO52AK6WmsE-21" value="Yes" style="text;html=1;align=center;verticalAlign=middle;resizable=0;points=[];autosize=1;strokeColor=none;fillColor=none;fontSize=16;" vertex="1" parent="1">
          <mxGeometry x="485" y="708" width="50" height="30" as="geometry" />
        </mxCell>
      </root>
    </mxGraphModel>
  </diagram>
</mxfile>
